HIERARCHY
ROOT Hips
{
 OFFSET 0.000000 0.000000 0.000000
 CHANNELS 6 Xposition Yposition Zposition Yrotation Xrotation Zrotation
 JOINT Chest
 {
  OFFSET 0.000000 9.588913 -0.003946
  CHANNELS 3 Yrotation Xrotation Zrotation
  JOINT Chest2
  {
   OFFSET 0.000000 9.541882 0.008053
   CHANNELS 3 Yrotation Xrotation Zrotation
   JOINT Chest3
   {
    OFFSET 0.000000 9.501360 0.000000
    CHANNELS 3 Yrotation Xrotation Zrotation
    JOINT Chest4
    {
     OFFSET 0.000000 9.491660 0.000000
     CHANNELS 3 Yrotation Xrotation Zrotation
     JOINT Neck
     {
      OFFSET 0.000000 14.331917 0.000000
      CHANNELS 3 Yrotation Xrotation Zrotation
      JOINT Head
      {
       OFFSET 0.000000 8.884799 0.017034
       CHANNELS 3 Yrotation Xrotation Zrotation
       End Site
       {
        OFFSET 0.000000 16.896195 0.008993
       }
      }
     }
     JOINT RightCollar
     {
      OFFSET -2.923010 9.499495 0.000000
      CHANNELS 3 Yrotation Xrotation Zrotation
      JOINT RightShoulder
      {
       OFFSET -13.795216 0.000000 0.000000
       CHANNELS 3 Yrotation Xrotation Zrotation
       JOINT RightElbow
       {
        OFFSET -30.272209 0.000000 0.000000
        CHANNELS 3 Yrotation Xrotation Zrotation
        JOINT RightWrist
        {
         OFFSET -24.478199 0.000000 0.000000
         CHANNELS 3 Yrotation Xrotation Zrotation
         End Site
         {
          OFFSET -18.090752 0.000000 0.000000
         }
        }
       }
      }
     }
     JOINT LeftCollar
     {
      OFFSET 2.923010 9.499495 0.000000
      CHANNELS 3 Yrotation Xrotation Zrotation
      JOINT LeftShoulder
      {
       OFFSET 13.795216 0.000000 0.000000
       CHANNELS 3 Yrotation Xrotation Zrotation
       JOINT LeftElbow
       {
        OFFSET 30.272209 0.000000 0.000000
        CHANNELS 3 Yrotation Xrotation Zrotation
        JOINT LeftWrist
        {
         OFFSET 24.478199 0.000000 0.000000
         CHANNELS 3 Yrotation Xrotation Zrotation
         End Site
         {
          OFFSET 18.090752 0.000000 0.000000
         }
        }
       }
      }
     }
    }
   }
  }
 }
 JOINT RightHip
 {
  OFFSET -7.826875 0.019532 0.001973
  CHANNELS 3 Yrotation Xrotation Zrotation
  JOINT RightKnee
  {
   OFFSET 0.000000 -40.546152 -0.001885
   CHANNELS 3 Yrotation Xrotation Zrotation
   JOINT RightAnkle
   {
    OFFSET 0.000000 -39.417092 -0.003189
    CHANNELS 3 Yrotation Xrotation Zrotation
    JOINT RightToe
    {
     OFFSET 0.000000 -7.579396 17.243563
     CHANNELS 3 Yrotation Xrotation Zrotation
     End Site
     {
      OFFSET 0.000000 -1.500329 6.694466
     }
    }
   }
  }
 }
 JOINT LeftHip
 {
  OFFSET 7.826875 0.019532 0.001973
  CHANNELS 3 Yrotation Xrotation Zrotation
  JOINT LeftKnee
  {
   OFFSET 0.000000 -40.546152 -0.001885
   CHANNELS 3 Yrotation Xrotation Zrotation
   JOINT LeftAnkle
   {
    OFFSET 0.000000 -39.417092 -0.003189
    CHANNELS 3 Yrotation Xrotation Zrotation
    JOINT LeftToe
    {
     OFFSET 0.000000 -7.579396 17.243563
     CHANNELS 3 Yrotation Xrotation Zrotation
     End Site
     {
      OFFSET 0.000000 -1.500329 6.694466
     }
    }
   }
  }
 }
}
MOTION
Frames: 5
Frame Time: 0.008333
0.000000 87.345680 0.000000 0.000000 -5.767889 0.000000 0.000000 11.653876 0.000000 0.000000 -5.885988 0.000000 0.000000 -0.000000 0.000000 0.000000 -0.000000 0.000000 0.000000 12.528808 0.000000 0.000000 0.711711 0.000000 0.000000 -0.000000 0.000000 0.000000 -0.000000 0.000000 2.309063 -0.000000 0.000000 -2.309063 -0.000000 -0.000000 0.000000 -0.000000 0.000000 0.000000 0.000000 0.000000 -2.309063 0.000000 0.000000 2.309063 -0.000000 0.000000 0.000000 8.520374 0.000000 0.000000 1.905768 0.000000 -0.000000 -4.658254 0.000000 0.000000 -0.000000 0.000000 0.000000 8.520374 0.000000 0.000000 1.905768 0.000000 -0.000000 -4.658254 0.000000 0.000000 -0.000000 0.000000
-7.964132 89.257464 -2.596475 -135.684301 -9.572997 -0.306167 3.653388 1.218108 -0.093108 2.095415 0.697521 -0.053600 2.619215 0.872171 -0.063012 2.095415 0.697521 -0.053600 -1.356330 26.546354 1.891917 -1.915647 3.354080 2.379914 -4.002388 5.376399 -2.205979 -11.545675 4.651479 92.233319 9.392382 0.865841 4.254276 1.099559 -5.435950 1.335019 -4.733445 3.126872 1.649843 15.605795 0.278361 -90.615171 1.766949 -10.895970 -1.625886 -3.919417 -1.799811 1.712699 -8.057279 9.967972 0.159927 5.442932 2.523397 0.087236 2.970948 -3.480164 -1.265306 0.012359 -0.064028 0.042405 10.038335 10.456610 -0.274362 -3.414916 2.253412 0.476892 -1.189311 -4.357591 0.923075 -0.021861 -0.023415 0.025082
-7.974303 89.256306 -2.614818 -135.690713 -9.569643 -0.301701 3.656263 1.222473 -0.094904 2.098754 0.698820 -0.054471 2.623387 0.873800 -0.064087 2.098754 0.698820 -0.054471 -1.366209 26.529261 1.875047 -1.922505 3.332182 2.363534 -3.996192 5.373740 -2.213353 -11.591809 4.670054 92.188517 9.531486 0.822345 4.316383 1.180594 -5.446022 1.333559 -4.728465 3.126716 1.647194 15.640332 0.268876 -90.610003 1.716372 -10.922161 -1.670400 -3.927042 -1.800028 1.711341 -8.058772 9.973730 0.160800 5.430767 2.536226 0.085635 2.982662 -3.495821 -1.278014 0.013251 -0.056332 0.040542 10.039868 10.460164 -0.273091 -3.427971 2.264450 0.476681 -1.173868 -4.363701 0.901984 -0.022268 -0.026995 0.030554
-7.985993 89.254868 -2.635898 -135.697527 -9.563431 -0.296606 3.658494 1.225648 -0.097271 2.101590 0.700088 -0.055383 2.626931 0.875391 -0.065215 2.101590 0.700088 -0.055383 -1.373972 26.510540 1.857005 -1.926763 3.308134 2.345373 -3.990703 5.370464 -2.218752 -11.632620 4.684008 92.144118 9.662593 0.777859 4.374920 1.262342 -5.459454 1.322312 -4.722083 3.127731 1.645297 15.671640 0.257373 -90.602953 1.666573 -10.940495 -1.717344 -3.933058 -1.800154 1.709049 -8.063561 9.979258 0.160658 5.421431 2.548370 0.084910 2.994683 -3.513392 -1.290434 0.014066 -0.049784 0.038074 10.037952 10.463421 -0.274343 -3.439716 2.273981 0.480128 -1.158163 -4.368774 0.878126 -0.022788 -0.031163 0.034981
-7.999173 89.253261 -2.659310 -135.705969 -9.557598 -0.289960 3.661006 1.229368 -0.099399 2.104282 0.701782 -0.056449 2.630294 0.877514 -0.066532 2.104282 0.701782 -0.056449 -1.380566 26.491293 1.837990 -1.929511 3.283366 2.325875 -3.985355 5.366150 -2.222093 -11.664999 4.693850 92.098590 9.786839 0.730476 4.426757 1.338600 -5.475108 1.303315 -4.715338 3.126994 1.642571 15.700132 0.244819 -90.591888 1.619396 -10.948351 -1.765042 -3.937796 -1.800722 1.708125 -8.067888 9.987167 0.157865 5.413453 2.559993 0.086692 3.006633 -3.533042 -1.304190 0.015440 -0.043890 0.035964 10.034017 10.470014 -0.278673 -3.448677 2.281523 0.487683 -1.143471 -4.372984 0.852192 -0.022826 -0.035472 0.038110
